<svg width="650" height="464" viewBox="0 0 650 464" fill="none" xmlns="http://www.w3.org/2000/svg">
<g filter="url(#filter0_b_6_113)">
<circle cx="169.511" cy="54.2398" r="54.0292" fill="#FFDFDF" fill-opacity="0.35"/>
</g>
<rect x="62.6903" y="71.1497" width="484.201" height="281.282" rx="10" fill="url(#paint0_linear_6_113)" fill-opacity="0.9"/>
<g filter="url(#filter1_b_6_113)">
<rect y="251.797" width="367.069" height="211.992" rx="10" fill="#FFC6C6" fill-opacity="0.2"/>
</g>
<g filter="url(#filter2_b_6_113)">
<path d="M529.982 131.518C533.831 124.851 543.453 124.851 547.302 131.518L626.421 268.555C630.27 275.221 625.458 283.555 617.76 283.555H459.524C451.826 283.555 447.015 275.221 450.864 268.555L529.982 131.518Z" fill="#FFB4B4" fill-opacity="0.25"/>
</g>
<path d="M259.835 196.53C256.43 196.53 253.595 194.334 251.171 189.811C249.248 186.221 247.719 181.475 246.242 176.884C243.669 168.88 240.752 159.813 236.214 159.813C231.676 159.813 228.757 168.88 226.183 176.884C224.707 181.475 223.18 186.221 221.255 189.811C218.825 194.334 215.998 196.53 212.591 196.53C209.184 196.53 206.352 194.334 203.928 189.811C202.003 186.221 200.476 181.475 199 176.884C196.423 168.88 193.509 159.813 188.97 159.813C184.43 159.813 181.514 168.88 178.941 176.884C177.463 181.475 175.936 186.221 174.013 189.811C171.583 194.334 168.754 196.53 165.348 196.53C161.943 196.53 159.11 194.334 156.686 189.811C154.761 186.221 153.234 181.475 151.758 176.884C149.184 168.88 146.267 159.813 141.727 159.813C137.188 159.813 134.272 168.88 131.699 176.884C130.22 181.475 128.693 186.221 126.77 189.811C124.341 194.334 121.511 196.53 118.106 196.53C114.701 196.53 111.868 194.334 109.444 189.811C107.519 186.221 105.992 181.475 104.515 176.884C101.942 168.88 99.0244 159.813 94.4848 159.813C89.9452 159.813 87.0278 168.88 84.4543 176.884C82.9779 181.475 81.451 186.221 79.5279 189.811C77.0983 194.334 74.2687 196.53 70.8636 196.53C67.4584 196.53 64.6252 194.334 62.2012 189.811C60.2762 186.221 58.7493 181.475 57.2729 176.884C54.6994 168.88 51.782 159.813 47.2424 159.813C42.7028 159.813 39.7854 168.88 37.2119 176.884C35.7355 181.475 34.2086 186.221 32.2836 189.811C29.854 194.334 27.0264 196.53 23.6212 196.53C20.216 196.53 17.3809 194.334 14.9513 189.811C13.0282 186.221 11.5013 181.475 10.0249 176.884C7.45696 168.88 4.53959 159.813 0 159.813V156.112C3.40516 156.112 6.23843 158.31 8.66241 162.833C10.5874 166.421 12.1143 171.169 13.5907 175.76C16.1642 183.762 19.0816 192.829 23.6212 192.829C28.1608 192.829 31.0782 183.762 33.6517 175.76C35.1281 171.169 36.655 166.421 38.5781 162.833C41.004 158.31 43.8372 156.112 47.2424 156.112C50.6476 156.112 53.4808 158.31 55.9048 162.833C57.8298 166.421 59.3567 171.169 60.8331 175.76C63.4066 183.762 66.324 192.829 70.8636 192.829C75.4032 192.829 78.3205 183.762 80.894 175.76C82.3705 171.169 83.8974 166.421 85.8224 162.833C88.2463 158.31 91.0796 156.112 94.4848 156.112C97.8899 156.112 100.723 158.31 103.149 162.833C105.072 166.421 106.599 171.169 108.076 175.76C110.651 183.762 113.566 192.829 118.106 192.829C122.646 192.829 125.563 183.762 128.136 175.76C129.613 171.169 131.14 166.421 133.065 162.833C135.496 158.31 138.322 156.112 141.727 156.112C145.132 156.112 147.967 158.31 150.391 162.833C152.315 166.421 153.841 171.169 155.32 175.76C157.893 183.762 160.809 192.829 165.348 192.829C169.888 192.829 172.805 183.762 175.379 175.76C176.855 171.169 178.382 166.421 180.307 162.833C182.731 158.31 185.564 156.112 188.97 156.112C192.375 156.112 195.21 158.31 197.634 162.833C199.557 166.421 201.086 171.169 202.562 175.76C205.136 183.762 208.053 192.829 212.591 192.829C217.128 192.829 220.048 183.762 222.621 175.76C224.098 171.169 225.625 166.421 227.55 162.833C229.979 158.31 232.809 156.112 236.214 156.112C239.619 156.112 242.452 158.31 244.876 162.833C246.801 166.421 248.328 171.169 249.805 175.76C252.378 183.762 255.295 192.829 259.835 192.829" fill="#FFE8E8" fill-opacity="0.8"/>
<defs>
<filter id="filter0_b_6_113" x="105.482" y="-9.78934" width="128.058" height="128.058" filterUnits="userSpaceOnUse" color-interpolation-filters="sRGB">
<feFlood flood-opacity="0" result="BackgroundImageFix"/>
<feGaussianBlur in="BackgroundImageFix" stdDeviation="5"/>
<feComposite in2="SourceAlpha" operator="in" result="effect1_backgroundBlur_6_113"/>
<feBlend mode="normal" in="SourceGraphic" in2="effect1_backgroundBlur_6_113" result="shape"/>
</filter>
<filter id="filter1_b_6_113" x="-10" y="241.797" width="387.069" height="231.992" filterUnits="userSpaceOnUse" color-interpolation-filters="sRGB">
<feFlood flood-opacity="0" result="BackgroundImageFix"/>
<feGaussianBlur in="BackgroundImageFix" stdDeviation="5"/>
<feComposite in2="SourceAlpha" operator="in" result="effect1_backgroundBlur_6_113"/>
<feBlend mode="normal" in="SourceGraphic" in2="effect1_backgroundBlur_6_113" result="shape"/>
</filter>
<filter id="filter2_b_6_113" x="439.509" y="116.518" width="198.266" height="177.037" filterUnits="userSpaceOnUse" color-interpolation-filters="sRGB">
<feFlood flood-opacity="0" result="BackgroundImageFix"/>
<feGaussianBlur in="BackgroundImageFix" stdDeviation="5"/>
<feComposite in2="SourceAlpha" operator="in" result="effect1_backgroundBlur_6_113"/>
<feBlend mode="normal" in="SourceGraphic" in2="effect1_backgroundBlur_6_113" result="shape"/>
</filter>
<linearGradient id="paint0_linear_6_113" x1="36.7068" y1="52.1777" x2="560.089" y2="352.431" gradientUnits="userSpaceOnUse">
<stop stop-color="#FF6B6B"/>
<stop offset="1" stop-color="#550D0D"/>
</linearGradient>
</defs>
</svg>
